<svg version="1.1" id="Layer_1" xmlns="http://www.w3.org/2000/svg" xmlns:xlink="http://www.w3.org/1999/xlink" x="0px" y="0px"
	 width="100%" viewBox="0 0 512 512" enable-background="new 0 0 512 512" xml:space="preserve">
<path fill="#58ABF0" opacity="1.000000" stroke="none" 
	d="
M175.000000,0.999998 
	C200.020889,1.000000 225.041794,1.000000 250.511475,1.360619 
	C249.923965,3.363534 249.152283,5.270185 247.813522,6.610347 
	C167.402008,87.106232 86.950249,167.561905 6.438126,247.957138 
	C5.023305,249.369888 2.830032,250.003052 0.999998,251.000000 
	C1.000000,225.979111 1.000000,200.958206 1.360626,175.448822 
	C3.363134,173.924454 5.268711,173.152695 6.608911,171.814667 
	C61.774300,116.738075 116.898201,61.619900 171.957520,6.437306 
	C173.369690,5.021986 174.003296,2.829851 175.000000,0.999998 
z"/>
<path fill="#4CA1EA" opacity="1.000000" stroke="none" 
	d="
M0.999995,375.000000 
	C1.000000,362.645782 1.000000,350.291534 1.360625,337.448792 
	C3.600559,335.687134 5.737543,334.673309 7.319903,333.101257 
	C26.117228,314.426300 44.831863,295.668121 63.568203,276.931763 
	C153.243393,187.256577 242.926224,97.589027 332.541595,7.854102 
	C334.426025,5.967154 335.531281,3.302077 337.000000,1.000004 
	C353.354218,1.000000 369.708466,1.000000 386.197632,1.317345 
	C389.219940,2.478507 392.107300,3.322324 394.973267,4.516193 
	C393.650391,6.728355 392.591248,8.832074 391.011536,10.416862 
	C360.673065,40.852146 330.255859,71.208961 299.934265,101.660973 
	C298.272644,103.329750 297.302094,105.686630 295.597046,107.769501 
	C281.256592,105.657280 267.328949,103.498787 254.394043,101.494141 
	C256.218719,107.416611 258.295074,114.155914 259.987976,120.931396 
	C257.341614,122.539757 254.778061,123.810883 252.859116,125.727440 
	C171.436905,207.048843 90.081711,288.437347 8.647966,369.747192 
	C6.495914,371.895996 3.566759,373.266510 0.999995,375.000000 
z"/>
<path fill="#2173C1" opacity="1.000000" stroke="none" 
	d="
M513.000000,258.000000 
	C513.000000,280.354218 513.000000,302.708466 512.639404,325.551208 
	C510.637512,327.075043 508.732391,327.846191 507.392853,329.183716 
	C447.893494,388.595337 388.435303,448.048187 329.040741,507.564453 
	C327.629028,508.979004 326.996124,511.170746 326.000000,513.000000 
	C313.645782,513.000000 301.291534,513.000000 288.407440,512.661987 
	C286.095062,510.220642 284.321411,508.109741 282.528015,506.015808 
	C279.685120,502.696442 276.828979,499.388397 274.143768,495.782654 
	C274.963501,494.736298 275.574585,493.939575 276.278442,493.235565 
	C353.690430,415.810120 431.105804,338.388062 508.558929,261.003784 
	C509.800385,259.763428 511.509247,258.990875 513.000000,258.000000 
z"/>
<path fill="#1D75CB" opacity="1.000000" stroke="none" 
	d="
M326.468628,513.000000 
	C326.996124,511.170746 327.629028,508.979004 329.040741,507.564453 
	C388.435303,448.048187 447.893494,388.595337 507.392853,329.183716 
	C508.732391,327.846191 510.637512,327.075043 512.639404,326.019836 
	C513.000000,346.354218 513.000000,366.708466 512.618408,387.330505 
	C511.829742,388.436127 511.188751,389.237244 511.050751,390.117279 
	C509.013153,403.111816 504.958771,415.496460 499.264832,427.289520 
	C489.069092,448.406647 475.306915,466.650085 456.539673,481.137665 
	C436.608093,496.523987 414.639130,506.888794 389.781403,511.092224 
	C389.099548,511.207520 388.589935,512.341187 388.000000,513.000000 
	C367.645782,513.000000 347.291534,513.000000 326.468628,513.000000 
z"/>
<path fill="#53A7EE" opacity="1.000000" stroke="none" 
	d="
M0.999998,251.468658 
	C2.830032,250.003052 5.023305,249.369888 6.438126,247.957138 
	C86.950249,167.561905 167.402008,87.106232 247.813522,6.610347 
	C249.152283,5.270185 249.923965,3.363534 250.980133,1.360619 
	C266.354218,1.000000 281.708466,1.000000 297.467285,1.346789 
	C296.603455,3.606649 295.616516,5.800936 294.026337,7.392591 
	C198.477448,103.031097 102.885338,198.626434 7.233197,294.161652 
	C5.553319,295.839447 3.095059,296.737885 1.000001,298.000000 
	C1.000000,282.645782 1.000000,267.291534 0.999998,251.468658 
z"/>
<path fill="#2471BA" opacity="1.000000" stroke="none" 
	d="
M513.000000,257.537079 
	C511.509247,258.990875 509.800385,259.763428 508.558929,261.003784 
	C431.105804,338.388062 353.690430,415.810120 276.278442,493.235565 
	C275.574585,493.939575 274.963501,494.736298 273.812744,495.692810 
	C268.559631,491.580627 263.802887,487.265381 258.870605,482.668182 
	C254.814056,478.251251 250.933029,474.116241 247.382233,469.914520 
	C249.491821,468.381683 251.407623,467.052124 253.030838,465.429840 
	C329.951141,388.554504 406.819855,311.627533 483.816071,234.828354 
	C487.964722,230.690308 491.313934,227.029648 488.295044,221.143921 
	C495.170959,227.832703 501.747681,234.363922 508.362244,240.856644 
	C509.840027,242.307190 511.450562,243.622467 513.000000,245.000000 
	C513.000000,249.024719 513.000000,253.049438 513.000000,257.537079 
z"/>
<path fill="#50A4EC" opacity="1.000000" stroke="none" 
	d="
M1.000001,298.468658 
	C3.095059,296.737885 5.553319,295.839447 7.233197,294.161652 
	C102.885338,198.626434 198.477448,103.031097 294.026337,7.392591 
	C295.616516,5.800936 296.603455,3.606649 297.935944,1.346789 
	C310.687561,1.000000 323.375122,1.000000 336.531342,1.000004 
	C335.531281,3.302077 334.426025,5.967154 332.541595,7.854102 
	C242.926224,97.589027 153.243393,187.256577 63.568203,276.931763 
	C44.831863,295.668121 26.117228,314.426300 7.319903,333.101257 
	C5.737543,334.673309 3.600559,335.687134 1.360625,336.980164 
	C1.000000,324.312439 1.000000,311.624878 1.000001,298.468658 
z"/>
<path fill="#60B1F4" opacity="1.000000" stroke="none" 
	d="
M174.531342,0.999998 
	C174.003296,2.829851 173.369690,5.021986 171.957520,6.437306 
	C116.898201,61.619900 61.774300,116.738075 6.608911,171.814667 
	C5.268711,173.152695 3.363134,173.924454 1.360626,174.980164 
	C1.000000,158.979111 1.000000,142.958206 1.314781,126.808617 
	C2.074528,126.022629 2.828169,125.405083 2.918644,124.702171 
	C4.546407,112.056007 8.643957,100.141533 13.843302,88.607475 
	C24.317657,65.371529 39.613430,45.760002 60.050446,30.582355 
	C79.141777,16.404089 100.447205,6.789938 124.125275,2.921980 
	C124.835884,2.805898 125.378868,1.663758 126.000000,1.000001 
	C142.020889,1.000000 158.041794,1.000000 174.531342,0.999998 
z"/>
<path fill="#499FE9" opacity="1.000000" stroke="none" 
	d="
M0.999995,375.463165 
	C3.566759,373.266510 6.495914,371.895996 8.647966,369.747192 
	C90.081711,288.437347 171.436905,207.048843 252.859116,125.727440 
	C254.778061,123.810883 257.341614,122.539757 260.178345,121.247917 
	C262.455353,130.353485 264.158508,139.178711 265.510193,148.025208 
	C263.176575,149.460236 260.946808,150.626129 259.247894,152.323380 
	C176.801971,234.687912 94.405838,317.102295 11.968638,399.475555 
	C10.247467,401.195374 8.110150,402.498779 6.086946,403.601501 
	C5.003712,398.900787 4.076302,394.574707 2.934820,390.305847 
	C2.699975,389.427582 1.665768,388.763062 1.000001,388.000000 
	C1.000000,383.975464 1.000000,379.950897 0.999995,375.463165 
z"/>
<path fill="#328BDE" opacity="1.000000" stroke="none" 
	d="
M175.000000,513.000000 
	C158.979111,513.000000 142.958206,513.000000 126.796265,512.669495 
	C125.681168,511.895325 124.745956,511.306335 123.726181,511.033722 
	C119.799538,509.984009 115.845856,509.035492 112.152084,507.823853 
	C113.607231,506.226440 114.740494,504.782440 116.028519,503.493011 
	C142.120071,477.373016 168.225464,451.266846 194.348068,425.177948 
	C195.514404,424.013123 196.869614,423.037445 198.412720,422.143066 
	C201.164368,424.717957 203.602859,427.163330 206.123856,429.520447 
	C211.022537,434.100677 215.967529,438.631409 220.986328,443.504517 
	C224.398880,447.521698 227.718460,451.217041 230.867493,455.204315 
	C213.472992,472.822540 196.229706,490.129669 179.057297,507.506836 
	C177.473618,509.109375 176.341705,511.158325 175.000000,513.000000 
z"/>
<path fill="#000000" opacity="1.000000" stroke="none" 
	d="
M394.994659,4.166141 
	C392.107300,3.322324 389.219940,2.478507 386.666290,1.317345 
	C428.926666,1.000000 470.853363,1.000000 513.000000,1.000000 
	C513.000000,42.353970 513.000000,83.708328 512.650269,125.822098 
	C510.904297,121.708282 509.508026,116.835045 508.061279,111.561783 
	C506.340790,105.952431 504.870361,100.668648 502.960815,95.548660 
	C498.414215,83.358162 492.324005,71.997772 484.010376,61.538734 
	C474.819122,48.455204 463.784821,37.629238 450.664673,28.392776 
	C440.530975,22.721628 430.920105,16.700607 420.655396,12.156732 
	C412.517426,8.554322 403.578125,6.762122 394.994659,4.166141 
z"/>
<path fill="#000000" opacity="1.000000" stroke="none" 
	d="
M111.902252,508.049255 
	C115.845856,509.035492 119.799538,509.984009 123.726181,511.033722 
	C124.745956,511.306335 125.681168,511.895325 126.327606,512.669495 
	C84.406364,513.000000 42.812729,513.000000 1.000000,513.000000 
	C1.000000,471.646027 1.000000,430.291687 1.000001,388.468658 
	C1.665768,388.763062 2.699975,389.427582 2.934820,390.305847 
	C4.076302,394.574707 5.003712,398.900787 6.021712,403.984680 
	C10.790824,418.905182 16.020939,432.824982 24.937489,445.398529 
	C28.006306,449.927429 30.903965,454.194489 34.062984,458.258392 
	C42.229916,468.764801 51.912273,477.672729 63.110020,485.410767 
	C65.989784,487.457611 68.689857,489.232605 71.436638,490.932068 
	C84.038666,498.729095 97.302170,504.971497 111.902252,508.049255 
z"/>
<path fill="#000000" opacity="1.000000" stroke="none" 
	d="
M125.531342,1.000001 
	C125.378868,1.663758 124.835884,2.805898 124.125275,2.921980 
	C100.447205,6.789938 79.141777,16.404089 60.050446,30.582355 
	C39.613430,45.760002 24.317657,65.371529 13.843302,88.607475 
	C8.643957,100.141533 4.546407,112.056007 2.918644,124.702171 
	C2.828169,125.405083 2.074528,126.022629 1.314781,126.339958 
	C1.000000,84.406364 1.000000,42.812733 1.000000,1.000000 
	C42.353970,1.000000 83.708328,1.000000 125.531342,1.000001 
z"/>
<path fill="#000000" opacity="1.000000" stroke="none" 
	d="
M388.468658,513.000000 
	C388.589935,512.341187 389.099548,511.207520 389.781403,511.092224 
	C414.639130,506.888794 436.608093,496.523987 456.539673,481.137665 
	C475.306915,466.650085 489.069092,448.406647 499.264832,427.289520 
	C504.958771,415.496460 509.013153,403.111816 511.050751,390.117279 
	C511.188751,389.237244 511.829742,388.436127 512.618408,387.799133 
	C513.000000,429.593628 513.000000,471.187256 513.000000,513.000000 
	C471.646027,513.000000 430.291687,513.000000 388.468658,513.000000 
z"/>
<path fill="#328BDE" opacity="1.000000" stroke="none" 
	d="
M508.111725,111.961807 
	C509.508026,116.835045 510.904297,121.708282 512.650269,126.290756 
	C513.000000,141.354233 513.000000,156.708450 512.639404,172.551193 
	C510.527588,174.184830 508.532990,175.081192 507.065643,176.516541 
	C499.132721,184.276352 491.161621,192.010803 483.560333,200.089615 
	C480.190491,203.671143 476.893738,205.835327 471.677246,203.843628 
	C467.589874,200.148010 463.783539,196.624771 459.735718,192.866699 
	C453.305939,186.096527 447.117645,179.561157 441.329468,173.019363 
	C444.152802,171.842117 447.102386,171.205704 448.917786,169.417694 
	C466.906219,151.700623 484.687195,133.773056 502.594910,115.973526 
	C504.188568,114.389511 506.261414,113.287613 508.111725,111.961807 
z"/>
<path fill="#2D86DB" opacity="1.000000" stroke="none" 
	d="
M175.468658,513.000000 
	C176.341705,511.158325 177.473618,509.109375 179.057297,507.506836 
	C196.229706,490.129669 213.472992,472.822540 231.150208,455.384399 
	C236.752991,460.175415 241.902512,465.078308 247.052002,469.981232 
	C250.933029,474.116241 254.814056,478.251251 258.692291,482.957153 
	C250.675140,491.636597 242.624542,499.709900 234.679565,507.885834 
	C233.231873,509.375641 232.215485,511.284546 231.000000,513.000000 
	C212.645767,513.000000 194.291550,513.000000 175.468658,513.000000 
z"/>
<path fill="#2D87DB" opacity="1.000000" stroke="none" 
	d="
M471.958282,204.016006 
	C476.893738,205.835327 480.190491,203.671143 483.560333,200.089615 
	C491.161621,192.010803 499.132721,184.276352 507.065643,176.516541 
	C508.532990,175.081192 510.527588,174.184830 512.639404,173.019852 
	C513.000000,196.687561 513.000000,220.375122 513.000000,244.531342 
	C511.450562,243.622467 509.840027,242.307190 508.362244,240.856644 
	C501.747681,234.363922 495.170959,227.832703 488.122314,220.862335 
	C482.428772,214.944870 477.193542,209.480438 471.958282,204.016006 
z"/>
<path fill="#2883D9" opacity="1.000000" stroke="none" 
	d="
M231.468658,513.000000 
	C232.215485,511.284546 233.231873,509.375641 234.679565,507.885834 
	C242.624542,499.709900 250.675140,491.636597 258.867798,483.239075 
	C263.802887,487.265381 268.559631,491.580627 273.647400,495.985748 
	C276.828979,499.388397 279.685120,502.696442 282.528015,506.015808 
	C284.321411,508.109741 286.095062,510.220642 287.938782,512.661987 
	C269.312439,513.000000 250.624878,513.000000 231.468658,513.000000 
z"/>
<path fill="#FEFFFF" opacity="1.000000" stroke="none" 
	d="
M265.861664,148.003952 
	C264.158508,139.178711 262.455353,130.353485 260.561829,121.211731 
	C258.295074,114.155914 256.218719,107.416611 254.394043,101.494141 
	C267.328949,103.498787 281.256592,105.657280 296.035065,107.863785 
	C313.023254,108.009850 329.165314,108.378883 345.296173,108.100563 
	C354.423370,107.943085 363.532227,106.722443 372.489075,106.352127 
	C371.523712,109.251335 370.627899,111.754242 369.927734,114.310722 
	C364.065399,135.715302 361.456299,157.635178 360.106110,179.698807 
	C359.183411,194.777344 358.961121,209.898758 358.329468,225.460510 
	C357.402771,249.946732 356.572357,273.973450 355.548004,298.342255 
	C352.870850,311.039337 351.298920,323.664795 347.727722,335.696869 
	C338.293579,367.481873 320.097961,392.152557 288.184235,404.837189 
	C274.927704,410.106201 261.054443,412.442993 246.535065,413.992737 
	C234.631744,413.448883 223.125000,413.585297 211.772964,412.326477 
	C198.679977,410.874634 187.194092,404.598419 176.025208,397.913605 
	C175.999863,397.951691 176.076309,398.001984 176.014404,397.727844 
	C175.625793,397.289734 175.299088,397.125793 174.978912,396.994507 
	C174.985443,397.027161 175.050156,397.011353 174.866837,396.753357 
	C174.115997,396.302277 173.548477,396.109131 172.982162,395.965271 
	C172.983353,396.014526 173.081909,396.013275 173.071808,395.701752 
	C172.710739,395.175995 172.359787,394.961761 171.860840,394.459351 
	C168.551102,391.297852 165.389359,388.424469 162.100021,385.252289 
	C149.280777,369.937073 142.157776,352.665863 141.007812,332.543854 
	C141.087524,329.762360 141.012466,327.437592 141.119873,325.121277 
	C141.961166,306.976379 147.537247,290.516693 160.958084,277.980499 
	C166.525146,272.780426 174.254471,269.895142 181.393890,265.945312 
	C192.859268,262.511780 203.902267,262.517853 215.135803,266.489075 
	C225.062744,269.881195 232.396271,276.210480 238.810699,284.268188 
	C239.302155,284.738861 239.653580,284.915833 240.003281,285.042023 
	C240.001541,284.991241 239.899963,284.994324 239.842117,285.314392 
	C240.181183,286.114075 240.578110,286.593719 240.975342,287.040710 
	C240.975647,287.008087 240.915359,287.033051 240.968689,287.392395 
	C242.522263,290.693451 244.022491,293.635162 246.026230,297.564148 
	C233.260803,292.766754 225.383759,295.076630 220.385376,304.402832 
	C216.163681,312.279877 216.396225,320.248901 221.727173,327.455109 
	C227.755325,335.603821 236.456482,337.443329 245.867981,335.536224 
	C258.896973,332.896057 264.306519,322.993896 267.787018,311.062500 
	C268.653503,307.824158 269.497223,304.940063 270.025085,301.999237 
	C275.510681,271.435547 272.643005,240.698837 271.923859,209.553238 
	C271.148376,198.367874 270.313110,187.634857 269.503815,176.461151 
	C268.307068,166.681625 267.084351,157.342789 265.861664,148.003952 
z"/>
<path fill="#459BE7" opacity="1.000000" stroke="none" 
	d="
M372.649323,105.980659 
	C363.532227,106.722443 354.423370,107.943085 345.296173,108.100563 
	C329.165314,108.378883 313.023254,108.009850 296.447876,107.817497 
	C297.302094,105.686630 298.272644,103.329750 299.934265,101.660973 
	C330.255859,71.208961 360.673065,40.852146 391.011536,10.416862 
	C392.591248,8.832074 393.650391,6.728355 394.973267,4.516193 
	C403.578125,6.762122 412.517426,8.554322 420.655396,12.156732 
	C430.920105,16.700607 440.530975,22.721628 450.259033,28.485247 
	C447.994507,30.145607 445.545502,31.074282 443.848053,32.759838 
	C421.142059,55.307110 398.517151,77.936386 375.971863,100.644333 
	C374.577393,102.048851 374.015533,104.279984 372.945587,106.136383 
	C372.824860,106.146255 372.649323,105.980659 372.649323,105.980659 
z"/>
<path fill="#276FB3" opacity="1.000000" stroke="none" 
	d="
M247.000015,414.056366 
	C261.054443,412.442993 274.927704,410.106201 288.184235,404.837189 
	C320.097961,392.152557 338.293579,367.481873 347.727722,335.696869 
	C351.298920,323.664795 352.870850,311.039337 355.926697,298.326111 
	C358.045898,297.098083 359.885345,296.522247 361.096130,295.315582 
	C392.931946,263.587830 424.729645,231.821548 456.411560,199.940338 
	C458.141876,198.199112 458.813049,195.405350 459.977234,193.101532 
	C463.783539,196.624771 467.589874,200.148010 471.677246,203.843628 
	C477.193542,209.480438 482.428772,214.944870 487.836761,220.690903 
	C491.313934,227.029648 487.964722,230.690308 483.816071,234.828354 
	C406.819855,311.627533 329.951141,388.554504 253.030838,465.429840 
	C251.407623,467.052124 249.491821,468.381683 247.382248,469.914520 
	C241.902512,465.078308 236.752991,460.175415 231.320770,455.092407 
	C227.718460,451.217041 224.398880,447.521698 221.167023,443.199188 
	C228.713791,435.003937 236.239380,427.499451 243.576691,419.815155 
	C245.079681,418.241089 245.877289,415.993500 247.000015,414.056366 
z"/>
<path fill="#469BE7" opacity="1.000000" stroke="none" 
	d="
M181.000458,265.957184 
	C174.254471,269.895142 166.525146,272.780426 160.958084,277.980499 
	C147.537247,290.516693 141.961166,306.976379 141.119873,325.121277 
	C141.012466,327.437592 141.087524,329.762360 140.672150,332.616272 
	C137.638458,335.138672 134.737167,336.853485 132.424011,339.158539 
	C98.383720,373.079193 64.432251,407.089020 30.407774,441.025604 
	C28.815264,442.614044 26.737286,443.715759 24.885406,445.044159 
	C16.020939,432.824982 10.790824,418.905182 6.101739,404.379578 
	C8.110150,402.498779 10.247467,401.195374 11.968638,399.475555 
	C94.405838,317.102295 176.801971,234.687912 259.247894,152.323380 
	C260.946808,150.626129 263.176575,149.460236 265.510193,148.025208 
	C267.084351,157.342789 268.307068,166.681625 269.105957,176.493042 
	C267.004700,177.927628 265.018921,178.579865 263.695404,179.897354 
	C236.971512,206.499756 210.296310,233.151413 183.734497,259.915436 
	C182.275360,261.385681 181.887161,263.918793 181.000458,265.957184 
z"/>
<path fill="#3890E1" opacity="1.000000" stroke="none" 
	d="
M162.227631,385.551147 
	C165.389359,388.424469 168.551102,391.297852 172.031616,394.678192 
	C172.594254,395.461212 172.838074,395.737244 173.081909,396.013275 
	C173.081909,396.013275 172.983353,396.014526 173.206512,396.156494 
	C173.969833,396.536102 174.509995,396.773712 175.050156,397.011353 
	C175.050156,397.011353 174.985443,397.027161 175.131424,397.199707 
	C175.543716,397.582184 175.810013,397.792084 176.076309,398.001984 
	C176.076309,398.001984 175.999863,397.951691 176.049713,398.263062 
	C177.318283,400.109253 178.421661,401.755249 179.775574,403.159760 
	C185.857071,409.468567 192.009811,415.708710 198.136841,421.973694 
	C196.869614,423.037445 195.514404,424.013123 194.348068,425.177948 
	C168.225464,451.266846 142.120071,477.373016 116.028519,503.493011 
	C114.740494,504.782440 113.607231,506.226440 112.152092,507.823853 
	C97.302170,504.971497 84.038666,498.729095 71.436638,490.932068 
	C68.689857,489.232605 65.989784,487.457611 63.281204,485.117615 
	C63.829102,483.881348 64.319016,483.199738 64.905357,482.614807 
	C97.341003,450.255096 129.784729,417.903534 162.227631,385.551147 
z"/>
<path fill="#2A6EAD" opacity="1.000000" stroke="none" 
	d="
M198.412720,422.143066 
	C192.009811,415.708710 185.857071,409.468567 179.775574,403.159760 
	C178.421661,401.755249 177.318283,400.109253 176.075043,398.224976 
	C187.194092,404.598419 198.679977,410.874634 211.772964,412.326477 
	C223.125000,413.585297 234.631744,413.448883 246.535065,413.992737 
	C245.877289,415.993500 245.079681,418.241089 243.576691,419.815155 
	C236.239380,427.499451 228.713791,435.003937 221.074051,442.877319 
	C215.967529,438.631409 211.022537,434.100677 206.123856,429.520447 
	C203.602859,427.163330 201.164368,424.717957 198.412720,422.143066 
z"/>
<path fill="#3F96E4" opacity="1.000000" stroke="none" 
	d="
M373.066315,106.126526 
	C374.015533,104.279984 374.577393,102.048851 375.971863,100.644333 
	C398.517151,77.936386 421.142059,55.307110 443.848053,32.759838 
	C445.545502,31.074282 447.994507,30.145607 450.499786,28.772617 
	C463.784821,37.629238 474.819122,48.455204 483.941589,61.892673 
	C482.652832,64.514595 481.684814,66.719040 480.101410,68.311600 
	C458.043579,90.496536 435.955933,112.652916 413.681824,134.619781 
	C411.798920,136.476685 408.530121,136.928299 405.626892,137.861160 
	C403.800354,136.195847 402.242493,134.711975 400.705383,133.206863 
	C391.489716,124.182793 382.278809,115.153839 373.066315,106.126526 
z"/>
<path fill="#3890E1" opacity="1.000000" stroke="none" 
	d="
M405.905182,138.032761 
	C408.530121,136.928299 411.798920,136.476685 413.681824,134.619781 
	C435.955933,112.652916 458.043579,90.496536 480.101410,68.311600 
	C481.684814,66.719040 482.652832,64.514595 483.975739,62.240707 
	C492.324005,71.997772 498.414215,83.358162 502.960815,95.548660 
	C504.870361,100.668648 506.340790,105.952431 508.061279,111.561775 
	C506.261414,113.287613 504.188568,114.389511 502.594910,115.973526 
	C484.687195,133.773056 466.906219,151.700623 448.917786,169.417694 
	C447.102386,171.205704 444.152802,171.842117 441.050110,172.847183 
	C435.250153,167.778290 430.129608,162.875137 424.794617,157.720947 
	C418.355194,150.990860 412.130188,144.511810 405.905182,138.032761 
z"/>
<path fill="#3F96E4" opacity="1.000000" stroke="none" 
	d="
M162.100037,385.252319 
	C129.784729,417.903534 97.341003,450.255096 64.905357,482.614807 
	C64.319016,483.199738 63.829102,483.881348 63.123024,484.810974 
	C51.912273,477.672729 42.229916,468.764801 34.062984,458.258392 
	C30.903965,454.194489 28.006306,449.927429 24.937489,445.398529 
	C26.737286,443.715759 28.815264,442.614044 30.407774,441.025604 
	C64.432251,407.089020 98.383720,373.079193 132.424011,339.158539 
	C134.737167,336.853485 137.638458,335.138672 140.601913,333.076935 
	C142.157776,352.665863 149.280777,369.937073 162.100037,385.252319 
z"/>
<path fill="#296CAA" opacity="1.000000" stroke="none" 
	d="
M425.009094,157.972000 
	C430.129608,162.875137 435.250153,167.778290 440.650024,172.853622 
	C447.117645,179.561157 453.305939,186.096527 459.735718,192.866699 
	C458.813049,195.405350 458.141876,198.199112 456.411560,199.940338 
	C424.729645,231.821548 392.931946,263.587830 361.096130,295.315582 
	C359.885345,296.522247 358.045898,297.098083 356.120667,297.984009 
	C356.572357,273.973450 357.402771,249.946732 358.662354,225.430222 
	C360.572815,223.948288 362.263977,223.166901 363.504120,221.932449 
	C383.050720,202.475342 402.565491,182.985886 421.986847,163.404007 
	C423.391693,161.987534 424.019806,159.800674 425.009094,157.972000 
z"/>
<path fill="#2B689F" opacity="1.000000" stroke="none" 
	d="
M424.794647,157.720963 
	C424.019806,159.800674 423.391693,161.987534 421.986847,163.404007 
	C402.565491,182.985886 383.050720,202.475342 363.504120,221.932449 
	C362.263977,223.166901 360.572815,223.948288 358.758575,224.970703 
	C358.961121,209.898758 359.183411,194.777344 360.106110,179.698807 
	C361.456299,157.635178 364.065399,135.715302 369.927734,114.310722 
	C370.627899,111.754242 371.523712,109.251335 372.489075,106.352127 
	C372.649323,105.980659 372.824860,106.146255 372.945587,106.136391 
	C382.278809,115.153839 391.489716,124.182793 400.705383,133.206863 
	C402.242493,134.711975 403.800354,136.195847 405.626892,137.861160 
	C412.130188,144.511810 418.355194,150.990860 424.794647,157.720963 
z"/>
<path fill="#3F96E4" opacity="1.000000" stroke="none" 
	d="
M238.670700,283.974487 
	C232.396271,276.210480 225.062744,269.881195 215.213226,266.139069 
	C215.795700,264.427979 216.367523,263.188080 217.272308,262.279816 
	C233.873520,245.615250 250.490707,228.966293 267.197876,212.408234 
	C268.382996,211.233734 270.291779,210.789444 271.864075,210.005600 
	C272.643005,240.698837 275.510681,271.435547 270.025085,301.999237 
	C269.497223,304.940063 268.653503,307.824158 267.449707,310.874756 
	C259.863434,304.076904 252.822540,297.098511 245.670242,290.236267 
	C244.311554,288.932678 242.511673,288.088959 240.915359,287.033051 
	C240.915359,287.033051 240.975647,287.008087 240.949982,286.734680 
	C240.582870,285.972290 240.241425,285.483307 239.899963,284.994324 
	C239.899963,284.994324 240.001541,284.991241 239.820435,284.813843 
	C239.316452,284.415802 238.993576,284.195160 238.670700,283.974487 
z"/>
<path fill="#449AE7" opacity="1.000000" stroke="none" 
	d="
M271.923859,209.553238 
	C270.291779,210.789444 268.382996,211.233734 267.197876,212.408234 
	C250.490707,228.966293 233.873520,245.615250 217.272308,262.279816 
	C216.367523,263.188080 215.795700,264.427979 214.991470,265.863525 
	C203.902267,262.517853 192.859268,262.511780 181.393875,265.945312 
	C181.887161,263.918793 182.275360,261.385681 183.734497,259.915436 
	C210.296310,233.151413 236.971512,206.499756 263.695404,179.897354 
	C265.018921,178.579865 267.004700,177.927628 269.079987,176.933746 
	C270.313110,187.634857 271.148376,198.367874 271.923859,209.553238 
z"/>
<path fill="#2C6AA2" opacity="1.000000" stroke="none" 
	d="
M240.968689,287.392395 
	C242.511673,288.088959 244.311554,288.932678 245.670242,290.236267 
	C252.822540,297.098511 259.863434,304.076904 267.280334,311.202698 
	C264.306519,322.993896 258.896973,332.896057 245.867981,335.536224 
	C236.456482,337.443329 227.755325,335.603821 221.727173,327.455109 
	C216.396225,320.248901 216.163681,312.279877 220.385376,304.402832 
	C225.383759,295.076630 233.260803,292.766754 246.026230,297.564148 
	C244.022491,293.635162 242.522263,290.693451 240.968689,287.392395 
z"/>
<path fill="#2C6AA2" opacity="1.000000" stroke="none" 
	d="
M239.842117,285.314392 
	C240.241425,285.483307 240.582870,285.972290 240.949677,286.767303 
	C240.578110,286.593719 240.181183,286.114075 239.842117,285.314392 
z"/>
<path fill="#2A6EAD" opacity="1.000000" stroke="none" 
	d="
M174.866837,396.753357 
	C174.509995,396.773712 173.969833,396.536102 173.205322,396.107239 
	C173.548477,396.109131 174.115997,396.302277 174.866837,396.753357 
z"/>
<path fill="#2C6AA2" opacity="1.000000" stroke="none" 
	d="
M238.810699,284.268188 
	C238.993576,284.195160 239.316452,284.415802 239.822174,284.864624 
	C239.653580,284.915833 239.302155,284.738861 238.810699,284.268188 
z"/>
<path fill="#2A6EAD" opacity="1.000000" stroke="none" 
	d="
M173.071808,395.701752 
	C172.838074,395.737244 172.594254,395.461212 172.179626,394.966370 
	C172.359787,394.961761 172.710739,395.175995 173.071808,395.701752 
z"/>
<path fill="#2A6EAD" opacity="1.000000" stroke="none" 
	d="
M176.014404,397.727844 
	C175.810013,397.792084 175.543716,397.582184 175.124893,397.167053 
	C175.299088,397.125793 175.625793,397.289734 176.014404,397.727844 
z"/>
</svg>